<svg xmlns="http://www.w3.org/2000/svg" viewBox="0 0 800 600">
  <defs>
    <linearGradient id="gradient" x1="0%" y1="0%" x2="100%" y2="100%">
      <stop offset="0%" stop-color="#5e35b1" stop-opacity="0.3"/>
      <stop offset="100%" stop-color="#7e57c2" stop-opacity="0.6"/>
    </linearGradient>
  </defs>
  <rect width="800" height="600" fill="#f5f5f5"/>
  <rect x="50" y="50" width="700" height="500" rx="20" ry="20" fill="white" stroke="#e0e0e0" stroke-width="2"/>
  
  <!-- Header -->
  <rect x="80" y="80" width="640" height="60" rx="10" ry="10" fill="#f5f5f5"/>
  <rect x="100" y="100" width="150" height="20" rx="5" ry="5" fill="#5e35b1"/>
  <rect x="500" y="100" width="50" height="20" rx="5" ry="5" fill="#e0e0e0"/>
  <rect x="570" y="100" width="50" height="20" rx="5" ry="5" fill="#e0e0e0"/>
  <rect x="640" y="100" width="50" height="20" rx="5" ry="5" fill="#e0e0e0"/>
  
  <!-- Main content -->
  <rect x="80" y="160" width="300" height="40" rx="5" ry="5" fill="#333"/>
  <rect x="80" y="210" width="250" height="20" rx="5" ry="5" fill="#757575"/>
  <rect x="80" y="240" width="250" height="20" rx="5" ry="5" fill="#757575"/>
  
  <!-- Buttons -->
  <rect x="80" y="290" width="120" height="40" rx="20" ry="20" fill="#5e35b1"/>
  <rect x="210" y="290" width="120" height="40" rx="20" ry="20" fill="white" stroke="#5e35b1" stroke-width="2"/>
  
  <!-- Dashboard visualization -->
  <rect x="400" y="160" width="320" height="240" rx="10" ry="10" fill="url(#gradient)"/>
  
  <!-- Table header -->
  <rect x="420" y="180" width="280" height="30" rx="5" ry="5" fill="white" fill-opacity="0.8"/>
  <rect x="430" y="190" width="60" height="10" rx="2" ry="2" fill="#5e35b1"/>
  <rect x="510" y="190" width="60" height="10" rx="2" ry="2" fill="#5e35b1"/>
  <rect x="590" y="190" width="60" height="10" rx="2" ry="2" fill="#5e35b1"/>
  
  <!-- Table rows -->
  <rect x="420" y="220" width="280" height="25" rx="5" ry="5" fill="white" fill-opacity="0.6"/>
  <rect x="430" y="227" width="40" height="10" rx="2" ry="2" fill="#333"/>
  <rect x="510" y="227" width="40" height="10" rx="2" ry="2" fill="#333"/>
  <rect x="590" y="227" width="40" height="10" rx="2" ry="2" fill="#333"/>
  <circle cx="680" cy="232" r="7" fill="#43a047"/>
  
  <rect x="420" y="255" width="280" height="25" rx="5" ry="5" fill="white" fill-opacity="0.6"/>
  <rect x="430" y="262" width="40" height="10" rx="2" ry="2" fill="#333"/>
  <rect x="510" y="262" width="40" height="10" rx="2" ry="2" fill="#333"/>
  <rect x="590" y="262" width="40" height="10" rx="2" ry="2" fill="#333"/>
  <circle cx="680" cy="267" r="7" fill="#e53935"/>
  
  <rect x="420" y="290" width="280" height="25" rx="5" ry="5" fill="white" fill-opacity="0.6"/>
  <rect x="430" y="297" width="40" height="10" rx="2" ry="2" fill="#333"/>
  <rect x="510" y="297" width="40" height="10" rx="2" ry="2" fill="#333"/>
  <rect x="590" y="297" width="40" height="10" rx="2" ry="2" fill="#333"/>
  <circle cx="680" cy="302" r="7" fill="#43a047"/>
  
  <rect x="420" y="325" width="280" height="25" rx="5" ry="5" fill="white" fill-opacity="0.6"/>
  <rect x="430" y="332" width="40" height="10" rx="2" ry="2" fill="#333"/>
  <rect x="510" y="332" width="40" height="10" rx="2" ry="2" fill="#333"/>
  <rect x="590" y="332" width="40" height="10" rx="2" ry="2" fill="#333"/>
  <circle cx="680" cy="337" r="7" fill="#43a047"/>
  
  <!-- Chart visualization -->
  <rect x="80" y="360" width="640" height="160" rx="10" ry="10" fill="#f5f5f5"/>
  
  <!-- Bar chart -->
  <rect x="100" y="390" width="40" height="100" rx="5" ry="5" fill="#5e35b1"/>
  <rect x="150" y="420" width="40" height="70" rx="5" ry="5" fill="#7e57c2"/>
  <rect x="200" y="400" width="40" height="90" rx="5" ry="5" fill="#5e35b1"/>
  <rect x="250" y="440" width="40" height="50" rx="5" ry="5" fill="#7e57c2"/>
  
  <!-- Line chart -->
  <path d="M350,490 L400,450 L450,470 L500,420 L550,440 L600,400" stroke="#5e35b1" stroke-width="3" fill="none" stroke-linecap="round" stroke-linejoin="round"/>
  <circle cx="350" cy="490" r="5" fill="#5e35b1"/>
  <circle cx="400" cy="450" r="5" fill="#5e35b1"/>
  <circle cx="450" cy="470" r="5" fill="#5e35b1"/>
  <circle cx="500" cy="420" r="5" fill="#5e35b1"/>
  <circle cx="550" cy="440" r="5" fill="#5e35b1"/>
  <circle cx="600" cy="400" r="5" fill="#5e35b1"/>
</svg> 